# xmcd CD database file
#
# Track frame offsets:
#	150
#	17455
#	41332
#	64762
#	91635
#	109990
#	118550
#	137935
#	158915
#	184340
#	192130
#	204812
#	230517
#	250797
#
# Disc length: 3572 seconds
#
# Revision: 2
# Processed by: cddbd v1.5.1PL2 Copyright (c) Steve Scherf et al.
# Submitted via: CDex 1.51
#
DISCID=b10df20e
DTITLE=????? - OFF COURSE 1970?1982 7
DYEAR=1900
DGENRE=New Age
TTITLE0=YES-YES-YES
TTITLE1=??????
TTITLE2=?????
TTITLE3=????
TTITLE4=????
TTITLE5=?????
TTITLE6=???????????
TTITLE7=????????????
TTITLE8=I LOVE YOU
TTITLE9=????????
TTITLE10=????
TTITLE11=NEXT????-?????-
TTITLE12=????????
TTITLE13=NEXT????
EXTD=
EXTT0=
EXTT1=
EXTT2=
EXTT3=
EXTT4=
EXTT5=
EXTT6=
EXTT7=
EXTT8=
EXTT9=
EXTT10=
EXTT11=
EXTT12=
EXTT13=
PLAYORDER=
